<svg width="14" height="14" viewBox="0 0 14 14" fill="none" xmlns="http://www.w3.org/2000/svg">
<path d="M7 14C10.8598 14 13.9999 10.8596 13.9999 6.99967C13.9999 3.14004 10.8598 0 7 0C3.14025 0 0.00012207 3.14004 0.00012207 6.99967C0.00012207 10.8596 3.14029 14 7 14ZM7 12.3696C5.89118 12.3696 4.83822 12.0376 3.93739 11.4065C4.30476 10.7971 5.42141 9.2699 7.81328 8.35751C8.4162 9.99211 8.72326 11.387 8.84788 12.0413C8.25789 12.2593 7.63759 12.3696 7 12.3696ZM10.4098 11.1419C10.2744 10.4807 10.0014 9.31732 9.52738 7.94658C9.76706 7.92272 10.0125 7.91067 10.2614 7.91067C11.1302 7.91067 11.855 8.05601 12.2378 8.15152C11.9821 9.31958 11.334 10.377 10.4098 11.1419ZM11.3938 3.94118C11.9316 4.71121 12.2596 5.61529 12.3409 6.55101C11.8477 6.47003 11.0027 6.36048 10.0409 6.36048C9.65973 6.36048 9.29072 6.37799 8.94037 6.41256C8.93117 6.39061 8.92188 6.36857 8.9125 6.34643C8.83939 6.1755 8.76095 6.00013 8.67824 5.82235C10.1073 5.1813 10.9733 4.39615 11.3938 3.94118ZM7 1.64744C8.20354 1.64744 9.36689 2.05255 10.3096 2.79436C9.98457 3.15773 9.24392 3.84954 7.94034 4.38833C7.29044 3.22608 6.62352 2.24072 6.24219 1.70104C6.49223 1.6654 6.74569 1.64744 7 1.64744ZM4.47418 2.28116C4.78866 2.72405 5.48234 3.72941 6.18264 4.9333C4.29898 5.38747 2.64381 5.48605 1.85373 5.50525C2.25644 4.13322 3.20687 2.96133 4.47418 2.28116ZM6.98733 6.42145C7.04836 6.54478 7.10684 6.66634 7.16284 6.78562C4.78355 7.60335 3.30646 9.42701 2.73559 10.2535C2.05764 9.36465 1.67449 8.28858 1.64116 7.16851C2.46955 7.15984 4.67826 7.07029 6.98733 6.42145Z" fill="#EBECF2"/>
</svg>
