<svg width="14" height="14" viewBox="0 0 14 14" fill="none" xmlns="http://www.w3.org/2000/svg">
<g clip-path="url(#clip0)">
<path d="M3.25884 4.50392H0.448314C0.323578 4.50392 0.222507 4.60504 0.222507 4.72973V13.7587C0.222507 13.8835 0.323578 13.9845 0.448314 13.9845H3.25884C3.38357 13.9845 3.48464 13.8835 3.48464 13.7587V4.72973C3.48464 4.60504 3.38357 4.50392 3.25884 4.50392Z" fill="#EBECF2"/>
<path d="M1.85459 0.0153961C0.831961 0.0153961 0 0.846454 0 1.86796C0 2.88991 0.831961 3.72129 1.85459 3.72129C2.87641 3.72129 3.7077 2.88987 3.7077 1.86796C3.70774 0.846454 2.87641 0.0153961 1.85459 0.0153961Z" fill="#EBECF2"/>
<path d="M10.4076 4.27955C9.2788 4.27955 8.44436 4.7648 7.93823 5.31618V4.72976C7.93823 4.60507 7.83716 4.50395 7.71243 4.50395H5.02086C4.89613 4.50395 4.79506 4.60507 4.79506 4.72976V13.7588C4.79506 13.8835 4.89613 13.9846 5.02086 13.9846H7.82524C7.94998 13.9846 8.05105 13.8835 8.05105 13.7588V9.29151C8.05105 7.78615 8.45994 7.19968 9.50931 7.19968C10.6522 7.19968 10.743 8.13985 10.743 9.36896V13.7588C10.743 13.8836 10.844 13.9846 10.9688 13.9846H13.7742C13.8989 13.9846 14 13.8836 14 13.7588V8.80625C14 6.56783 13.5732 4.27955 10.4076 4.27955Z" fill="#EBECF2"/>
</g>
<defs>
<clipPath id="clip0">
<rect width="14" height="14" fill="white"/>
</clipPath>
</defs>
</svg>
